<?xml version="1.0" encoding="UTF-8" standalone="no"?>
<svg
   viewBox="0 0 700 750"
   version="1.1"
   id="svg218"
   sodipodi:docname="bergen-klima-1.svg"
   inkscape:version="1.1.2 (b8e25be833, 2022-02-05)"
   xmlns:inkscape="http://www.inkscape.org/namespaces/inkscape"
   xmlns:sodipodi="http://sodipodi.sourceforge.net/DTD/sodipodi-0.dtd"
   xmlns="http://www.w3.org/2000/svg"
   xmlns:svg="http://www.w3.org/2000/svg">
  <defs
     id="defs222" />
  <sodipodi:namedview
     id="namedview220"
     pagecolor="#ffffff"
     bordercolor="#666666"
     borderopacity="1.0"
     inkscape:pageshadow="2"
     inkscape:pageopacity="0.0"
     inkscape:pagecheckerboard="0"
     showgrid="false"
     inkscape:zoom="1.0973333"
     inkscape:cx="350.3949"
     inkscape:cy="375.45565"
     inkscape:window-width="1920"
     inkscape:window-height="1009"
     inkscape:window-x="-8"
     inkscape:window-y="-8"
     inkscape:window-maximized="1"
     inkscape:current-layer="svg218" />
  <rect
     x="10"
     y="10"
     ry="5"
     width="680"
     height="720"
     style="fill:none;stroke:maroon; stroke-width:5;"
     id="rect2" />
  <text
     text-anchor="middle"
     x="350"
     y="45"
     font-family="Verdana"
     font-size="32"
     id="text4">Klimatabelle von Bergen </text>
  <rect
     x="15"
     y="15"
     rx="3"
     ry="3"
     width="670"
     height="40"
     style="fill:none;stroke:black; stroke-width:2;"
     id="rect6" />
  <!--  Titel -->
  <text
     x="60"
     y="95"
     font-family="Verdana"
     font-size="32"
     style="fill:#dimgray;"
     id="text30">J
    <tspan
   x="110"
   y="95"
   id="tspan8">F</tspan><tspan
   x="160"
   y="95"
   id="tspan10">M</tspan><tspan
   x="210"
   y="95"
   id="tspan12">A</tspan><tspan
   x="260"
   y="95"
   id="tspan14">M</tspan><tspan
   x="310"
   y="95"
   id="tspan16">J</tspan><tspan
   x="360"
   y="95"
   id="tspan18">J</tspan><tspan
   x="410"
   y="95"
   id="tspan20">A</tspan><tspan
   x="460"
   y="95"
   id="tspan22">S</tspan><tspan
   x="510"
   y="95"
   id="tspan24">O</tspan><tspan
   x="560"
   y="95"
   id="tspan26">N</tspan><tspan
   x="610"
   y="95"
   id="tspan28">D</tspan></text>
  <!--  linien -->
  <line
     x1="40"
     y1="100"
     x2="40"
     y2="720"
     style="stroke:rgb(100,100,100);stroke-width:2"
     id="line32" />
  <line
     x1="650"
     y1="52"
     x2="650"
     y2="720"
     style="stroke:rgb(100,100,100);stroke-width:2"
     id="line34" />
  <line
     x1="40"
     y1="130"
     x2="650"
     y2="130"
     style="stroke:rgb(100,100,100);stroke-width:2"
     id="line36" />
  <line
     x1="40"
     y1="720"
     x2="650"
     y2="720"
     style="stroke:rgb(100,100,100);stroke-width:2"
     id="line38" />
  <line
     x1="40"
     y1="52"
     x2="40"
     y2="720"
     style="stroke:rgb(100,100,100);stroke-width:2"
     id="line40" />
  <line
     x1="40"
     y1="170"
     x2="650"
     y2="170"
     style="stroke:rgb(100,100,100);stroke-width:2"
     id="line42" />
  <!--  rote rechtecke -->
  <rect
     x="50"
     y="163"
     width="40"
     height="8"
     style="fill:firebrick;stroke:rgb(20,50,50);"
     id="rect44" />
  <rect
     x="100"
     y="163"
     width="40"
     height="9"
     style="fill:firebrick;stroke:rgb(20,50,50);"
     id="rect46" />
  <rect
     x="150"
     y="158"
     width="40"
     height="10"
     style="fill:firebrick;stroke:rgb(20,50,50);"
     id="rect48" />
  <rect
     x="200"
     y="152"
     width="40"
     height="12.2"
     style="fill:firebrick;stroke:rgb(20,50,50);"
     id="rect50" />
  <rect
     x="250"
     y="142"
     width="40"
     height="13.6"
     style="fill:firebrick;stroke:rgb(20,50,50);"
     id="rect52" />
  <rect
     x="300"
     y="136"
     width="40"
     height="13.2"
     style="fill:firebrick;stroke:rgb(20,50,50);"
     id="rect54" />
  <rect
     x="350"
     y="135"
     width="40"
     height="12.2"
     style="fill:firebrick;stroke:rgb(20,50,50);"
     id="rect56" />
  <rect
     x="400"
     y="135"
     width="40"
     height="11.8"
     style="fill:firebrick;stroke:rgb(20,50,50);"
     id="rect58" />
  <rect
     x="450"
     y="135"
     width="40"
     height="10.2"
     style="fill:firebrick;stroke:rgb(20,50,50);"
     id="rect60" />
  <rect
     x="500"
     y="140"
     width="40"
     height="9.2"
     style="fill:firebrick;stroke:rgb(20,50,50);"
     id="rect62" />
  <rect
     x="550"
     y="156"
     width="40"
     height="8.2"
     style="fill:firebrick;stroke:rgb(20,50,50);"
     id="rect64" />
  <rect
     x="600"
     y="160"
     width="40"
     height="8.2"
     style="fill:firebrick;stroke:rgb(20,50,50);"
     id="rect66" />
  <!--  niederschlaege Titel -->
  <rect
     x="50"
     y="310"
     width="45"
     height="190"
     style="fill:steelblue;stroke:gray;"
     id="rect68" />
  <rect
     x="100"
     y="348"
     width="45"
     height="152"
     style="fill:steelblue;stroke:gray;"
     id="rect70" />
  <rect
     x="150"
     y="330"
     width="45"
     height="170"
     style="fill:steelblue;stroke:gray;"
     id="rect72" />
  <rect
     x="200"
     y="386"
     width="45"
     height="114"
     style="fill:steelblue;stroke:gray;"
     id="rect74" />
  <rect
     x="250"
     y="394"
     width="45"
     height="106"
     style="fill:steelblue;stroke:gray;"
     id="rect76" />
  <rect
     x="300"
     y="368"
     width="45"
     height="132"
     style="fill:steelblue;stroke:gray;"
     id="rect78" />
  <rect
     x="350"
     y="352"
     width="45"
     height="148"
     style="fill:steelblue;stroke:gray;"
     id="rect80" />
  <rect
     x="400"
     y="310"
     width="45"
     height="190"
     style="fill:steelblue;stroke:gray;"
     id="rect82" />
  <rect
     x="450"
     y="213"
     width="45"
     height="283"
     style="fill:steelblue;stroke:gray;"
     id="rect84" />
  <rect
     x="500"
     y="229"
     width="45"
     height="271"
     style="fill:steelblue;stroke:gray;"
     id="rect86" />
  <rect
     x="550"
     y="241"
     width="45"
     height="259"
     style="fill:steelblue;stroke:gray;"
     id="rect88" />
  <rect
     x="600"
     y="265"
     width="45"
     height="235"
     style="fill:steelblue;stroke:gray;"
     id="rect90" />
  <!--  hoechsttemperaturen -->
  <text
     x="60"
     y="125"
     font-family="Verdana"
     font-size="16"
     style="fill:black"
     id="text114">3,6
    <tspan
   x="110"
   y="125"
   id="tspan92">4</tspan><tspan
   x="160"
   y="125"
   id="tspan94">5,9</tspan><tspan
   x="210"
   y="125"
   id="tspan96">9,1</tspan><tspan
   x="260"
   y="125"
   id="tspan98">14</tspan><tspan
   x="310"
   y="125"
   id="tspan100">16,8</tspan><tspan
   x="360"
   y="125"
   id="tspan102">17,6</tspan><tspan
   x="410"
   y="125"
   id="tspan104">17,5</tspan><tspan
   x="460"
   y="125"
   id="tspan106">14,2</tspan><tspan
   x="510"
   y="125"
   id="tspan108">11,2</tspan><tspan
   x="560"
   y="125"
   id="tspan110">6,9</tspan><tspan
   x="610"
   y="125"
   id="tspan112">4,7</tspan></text>
  <!--  Tiefsttemperaturen -->
  <text
     x="52"
     y="195"
     font-family="Verdana"
     font-size="16"
     style="fill:black"
     id="text138">-0,4
    <tspan
   x="102"
   y="195"
   id="tspan116">-0,5</tspan><tspan
   x="155"
   y="195"
   id="tspan118">0,9</tspan><tspan
   x="210"
   y="195"
   id="tspan120">3,0</tspan><tspan
   x="260"
   y="195"
   id="tspan122">7,2</tspan><tspan
   x="310"
   y="195"
   id="tspan124">10,2</tspan><tspan
   x="352"
   y="195"
   id="tspan126">11,5</tspan><tspan
   x="402"
   y="195"
   id="tspan128">11,6</tspan><tspan
   x="452"
   y="195"
   id="tspan130">9,1</tspan><tspan
   x="502"
   y="195"
   id="tspan132">6,6</tspan><tspan
   x="547"
   y="195"
   id="tspan134">2,8</tspan><tspan
   x="597"
   y="195"
   id="tspan136">0,6</tspan></text>
  <!--  regenmengen -->
  <text
     x="60"
     y="485"
     font-family="Verdana"
     font-size="16"
     style="fill:white"
     id="text162">190
    <tspan
   x="110"
   y="485"
   id="tspan140">152</tspan><tspan
   x="160"
   y="485"
   id="tspan142">170</tspan><tspan
   x="210"
   y="485"
   id="tspan144">114</tspan><tspan
   x="260"
   y="485"
   id="tspan146">106</tspan><tspan
   x="310"
   y="485"
   id="tspan148">132</tspan><tspan
   x="360"
   y="485"
   id="tspan150">148</tspan><tspan
   x="410"
   y="485"
   id="tspan152">190</tspan><tspan
   x="460"
   y="485"
   id="tspan154">283</tspan><tspan
   x="510"
   y="485"
   id="tspan156">271</tspan><tspan
   x="560"
   y="485"
   id="tspan158">259</tspan><tspan
   x="610"
   y="485"
   id="tspan160">235</tspan></text>
  <!--  regentage -->
  <text
     x="60"
     y="525"
     font-family="Verdana"
     font-size="16"
     style="fill:black"
     id="text186">27
    <tspan
   x="110"
   y="525"
   id="tspan164">21</tspan><tspan
   x="160"
   y="525"
   id="tspan166">23</tspan><tspan
   x="210"
   y="525"
   id="tspan168">21</tspan><tspan
   x="260"
   y="525"
   id="tspan170">20</tspan><tspan
   x="310"
   y="525"
   id="tspan172">19</tspan><tspan
   x="360"
   y="525"
   id="tspan174">21</tspan><tspan
   x="410"
   y="525"
   id="tspan176">22</tspan><tspan
   x="460"
   y="525"
   id="tspan178">24</tspan><tspan
   x="510"
   y="525"
   id="tspan180">25</tspan><tspan
   x="560"
   y="525"
   id="tspan182">25</tspan><tspan
   x="610"
   y="525"
   id="tspan184">25</tspan></text>
  <!--  Titel -->
  <rect
     x="50"
     y="535"
     width="55"
     height="30"
     style="fill:firebrick;stroke:rgb(20,50,50);"
     id="rect188" />
  <rect
     x="50"
     y="580"
     width="55"
     height="30"
     style="fill:firebrick;stroke:rgb(20,50,50);"
     id="rect190" />
  <rect
     x="50"
     y="625"
     width="55"
     height="30"
     style="fill:steelblue;stroke:rgb(25,25,200);"
     id="rect192" />
  <rect
     x="50"
     y="670"
     width="55"
     height="30"
     style="fill:steelblue;stroke:rgb(25,25,200);"
     id="rect194" />
  <text
     x="60"
     y="557"
     font-family="Verdana"
     font-size="18"
     fill="white"
     id="text196"> 4,7</text>
  <text
     x="60"
     y="597"
     font-family="Verdana"
     font-size="18"
     fill="white"
     id="text198"> 0,6</text>
  <text
     x="60"
     y="650"
     font-family="Verdana"
     font-size="18"
     fill="white"
     id="text200"> 274</text>
  <text
     x="60"
     y="695"
     font-family="Verdana"
     font-size="18"
     fill="white"
     id="text202">2250</text>
  <text
     x="150"
     y="560"
     font-family="Verdana"
     font-size="18"
     fill="black"
     id="text204">Ø Mittlere Jahreshöchsttemperaturen in °C</text>
  <text
     x="150"
     y="605"
     font-family="Verdana"
     font-size="18"
     fill="black"
     id="text206">Ø Mittlere Jahrestiefsttemperaturen in °C</text>
  <text
     x="150"
     y="650"
     font-family="Verdana"
     font-size="18"
     fill="black"
     id="text208">Σ Anzahl der Regentage </text>
  <text
     x="150"
     y="695"
     font-family="Verdana"
     font-size="18"
     fill="black"
     id="text210">Σ Summe der Niederschläge in mm</text>
  <!--  Ende -->
  <a
     href="https://www.weatherbase.com/"
     id="a216">
    <circle
       cx="560"
       cy="653"
       r="35"
       style="fill:#89bcde;stroke:rgb(20,50,50);"
       id="circle212" />
    <text
       x="530"
       y="680"
       font-family="Verdana"
       font-size="70"
       fill="red"
       id="text214">✵</text>
  </a>
</svg>
